PathFileType	4	(X/Y/Z)	C:\Users\italobelli\Desktop\GitHub\PTbot_officialCBL\Personal_Results\ABD01_noisy2.trc
DataRate	CameraRate	NumFrames	NumMarkers	Units	OrigDataRate	OrigDataStartFrame	OrigNumFrames
104.666667	104.666667	38	9	m	104.666667	276	1100
Frame#	Time		gu		centelbow		EpL		centpxt8		centijc7		ij		ts		aa		ai
			X1	Y1	Z1	X2	Y2	Z2	X3	Y3	Z3	X4	Y4	Z4	X5	Y5	Z5	X6	Y6	Z6	X7	Y7	Z7	X8	Y8	Z8	X9	Y9	Z9

276	2.6274	-0.075394	-0.021638	0.16417	-0.10889	-0.27285	0.20083	-0.089258	-0.26866	0.22584	-0.046816	-0.15316	-0.008669	-0.046816	0.031938	-0.008669	0	0	0	-0.13669	0.031132	0.060453	-0.099219	0.017488	0.17283	-0.16114	-0.079706	0.060628
277	2.6369	-0.075366	-0.021629	0.16416	-0.10887	-0.27279	0.20059	-0.089271	-0.26862	0.22562	-0.046816	-0.15316	-0.008669	-0.046816	0.031938	-0.008669	0	0	0	-0.13668	0.03114	0.060448	-0.099222	0.017497	0.17283	-0.16113	-0.079698	0.060615
278	2.6465	-0.075337	-0.021619	0.16414	-0.10885	-0.27272	0.20033	-0.08928	-0.26856	0.22539	-0.046816	-0.15316	-0.008669	-0.046816	0.031938	-0.008669	0	0	0	-0.13667	0.031148	0.060441	-0.099225	0.017506	0.17282	-0.16111	-0.079691	0.060602
279	2.6561	-0.075305	-0.021609	0.16413	-0.10882	-0.27265	0.20006	-0.089284	-0.26849	0.22514	-0.046816	-0.15316	-0.008669	-0.046816	0.031938	-0.008669	0	0	0	-0.13666	0.031156	0.060434	-0.099228	0.017516	0.17282	-0.1611	-0.079684	0.060588
280	2.6656	-0.075272	-0.021599	0.16411	-0.10879	-0.27256	0.19978	-0.089285	-0.26842	0.22489	-0.046816	-0.15316	-0.008669	-0.046816	0.031938	-0.008669	0	0	0	-0.13665	0.031165	0.060427	-0.099232	0.017526	0.17281	-0.16108	-0.079677	0.060574
281	2.6752	-0.075237	-0.021589	0.16409	-0.10876	-0.27246	0.19948	-0.089282	-0.26833	0.22462	-0.046816	-0.15316	-0.008669	-0.046816	0.031938	-0.008669	0	0	0	-0.13664	0.031173	0.060419	-0.099235	0.017537	0.17281	-0.16107	-0.079669	0.06056
282	2.6847	-0.075201	-0.021578	0.16408	-0.10872	-0.27236	0.19917	-0.089277	-0.26824	0.22434	-0.046816	-0.15316	-0.008669	-0.046816	0.031938	-0.008669	0	0	0	-0.13663	0.031182	0.06041	-0.099238	0.017548	0.1728	-0.16105	-0.079662	0.060545
283	2.6943	-0.075164	-0.021568	0.16406	-0.10868	-0.27225	0.19885	-0.08927	-0.26814	0.22405	-0.046816	-0.15316	-0.008669	-0.046816	0.031938	-0.008669	0	0	0	-0.13662	0.03119	0.060401	-0.099241	0.017559	0.17279	-0.16103	-0.079654	0.06053
284	2.7038	-0.075126	-0.021557	0.16405	-0.10864	-0.27213	0.19852	-0.08926	-0.26803	0.22376	-0.046816	-0.15316	-0.008669	-0.046816	0.031938	-0.008669	0	0	0	-0.13661	0.031199	0.060391	-0.099244	0.01757	0.17279	-0.16102	-0.079647	0.060514
285	2.7134	-0.075087	-0.021546	0.16403	-0.1086	-0.272	0.19819	-0.08925	-0.26792	0.22346	-0.046816	-0.15316	-0.008669	-0.046816	0.031938	-0.008669	0	0	0	-0.13659	0.031208	0.06038	-0.099247	0.017582	0.17278	-0.161	-0.079639	0.060498
286	2.7229	-0.075048	-0.021534	0.16401	-0.10855	-0.27187	0.19785	-0.089238	-0.26779	0.22315	-0.046816	-0.15316	-0.008669	-0.046816	0.031938	-0.008669	0	0	0	-0.13658	0.031217	0.060369	-0.09925	0.017594	0.17277	-0.16098	-0.079632	0.060482
287	2.7325	-0.075007	-0.021523	0.164	-0.10851	-0.27173	0.1975	-0.089225	-0.26766	0.22284	-0.046816	-0.15316	-0.008669	-0.046816	0.031938	-0.008669	0	0	0	-0.13657	0.031226	0.060357	-0.099253	0.017606	0.17276	-0.16096	-0.079624	0.060465
288	2.742	-0.074967	-0.021511	0.16398	-0.10846	-0.27158	0.19715	-0.089213	-0.26753	0.22252	-0.046816	-0.15316	-0.008669	-0.046816	0.031938	-0.008669	0	0	0	-0.13656	0.031235	0.060344	-0.099256	0.017619	0.17275	-0.16094	-0.079617	0.060449
289	2.7516	-0.074926	-0.021499	0.16396	-0.10841	-0.27143	0.1968	-0.0892	-0.26739	0.22221	-0.046816	-0.15316	-0.008669	-0.046816	0.031938	-0.008669	0	0	0	-0.13654	0.031244	0.060331	-0.099259	0.017632	0.17274	-0.16092	-0.07961	0.060432
290	2.7611	-0.074886	-0.021486	0.16395	-0.10837	-0.27127	0.19645	-0.089189	-0.26724	0.22189	-0.046816	-0.15316	-0.008669	-0.046816	0.031938	-0.008669	0	0	0	-0.13653	0.031253	0.060317	-0.099263	0.017645	0.17274	-0.1609	-0.079602	0.060415
291	2.7707	-0.074845	-0.021474	0.16393	-0.10832	-0.27111	0.19609	-0.089179	-0.26708	0.22158	-0.046816	-0.15316	-0.008669	-0.046816	0.031938	-0.008669	0	0	0	-0.13652	0.031262	0.060303	-0.099266	0.017658	0.17273	-0.16088	-0.079595	0.060397
292	2.7803	-0.074805	-0.021461	0.16391	-0.10827	-0.27094	0.19574	-0.08917	-0.26693	0.22126	-0.046816	-0.15316	-0.008669	-0.046816	0.031938	-0.008669	0	0	0	-0.1365	0.031271	0.060288	-0.09927	0.017672	0.17272	-0.16086	-0.079587	0.06038
293	2.7898	-0.074765	-0.021449	0.16389	-0.10823	-0.27077	0.19539	-0.089163	-0.26676	0.22095	-0.046816	-0.15316	-0.008669	-0.046816	0.031938	-0.008669	0	0	0	-0.13649	0.03128	0.060272	-0.099273	0.017685	0.17271	-0.16084	-0.07958	0.060362
294	2.7994	-0.074726	-0.021436	0.16388	-0.10818	-0.2706	0.19504	-0.089159	-0.2666	0.22064	-0.046816	-0.15316	-0.008669	-0.046816	0.031938	-0.008669	0	0	0	-0.13647	0.031288	0.060256	-0.099277	0.017699	0.1727	-0.16082	-0.079573	0.060344
295	2.8089	-0.074688	-0.021423	0.16386	-0.10814	-0.27042	0.19469	-0.089158	-0.26643	0.22034	-0.046816	-0.15316	-0.008669	-0.046816	0.031938	-0.008669	0	0	0	-0.13646	0.031297	0.060239	-0.099281	0.017713	0.17268	-0.1608	-0.079566	0.060326
296	2.8185	-0.074651	-0.021409	0.16384	-0.1081	-0.27024	0.19435	-0.08916	-0.26625	0.22004	-0.046816	-0.15316	-0.008669	-0.046816	0.031938	-0.008669	0	0	0	-0.13645	0.031306	0.060221	-0.099285	0.017727	0.17267	-0.16078	-0.079559	0.060308
297	2.828	-0.074615	-0.021396	0.16382	-0.10807	-0.27005	0.19402	-0.089166	-0.26607	0.21976	-0.046816	-0.15316	-0.008669	-0.046816	0.031938	-0.008669	0	0	0	-0.13643	0.031315	0.060203	-0.09929	0.017741	0.17266	-0.16076	-0.079552	0.06029
298	2.8376	-0.07458	-0.021382	0.16381	-0.10803	-0.26986	0.1937	-0.089176	-0.26589	0.21948	-0.046816	-0.15316	-0.008669	-0.046816	0.031938	-0.008669	0	0	0	-0.13642	0.031323	0.060184	-0.099294	0.017756	0.17265	-0.16074	-0.079545	0.060271
299	2.8471	-0.074547	-0.021369	0.16379	-0.108	-0.26968	0.19338	-0.089191	-0.26571	0.21921	-0.046816	-0.15316	-0.008669	-0.046816	0.031938	-0.008669	0	0	0	-0.1364	0.031332	0.060165	-0.099299	0.01777	0.17264	-0.16072	-0.079539	0.060253
300	2.8567	-0.074516	-0.021355	0.16377	-0.10797	-0.26948	0.19308	-0.08921	-0.26552	0.21895	-0.046816	-0.15316	-0.008669	-0.046816	0.031938	-0.008669	0	0	0	-0.13639	0.03134	0.060145	-0.099304	0.017785	0.17263	-0.1607	-0.079532	0.060235
301	2.8662	-0.074486	-0.021341	0.16376	-0.10795	-0.26929	0.19278	-0.089236	-0.26533	0.2187	-0.046816	-0.15316	-0.008669	-0.046816	0.031938	-0.008669	0	0	0	-0.13637	0.031348	0.060124	-0.09931	0.0178	0.17262	-0.16068	-0.079526	0.060216
302	2.8758	-0.074459	-0.021326	0.16374	-0.10793	-0.2691	0.1925	-0.089268	-0.26514	0.21846	-0.046816	-0.15316	-0.008669	-0.046816	0.031938	-0.008669	0	0	0	-0.13636	0.031356	0.060103	-0.099315	0.017814	0.1726	-0.16066	-0.079519	0.060198
303	2.8854	-0.074433	-0.021312	0.16372	-0.10791	-0.26891	0.19224	-0.089306	-0.26495	0.21824	-0.046816	-0.15316	-0.008669	-0.046816	0.031938	-0.008669	0	0	0	-0.13634	0.031364	0.060081	-0.099321	0.017829	0.17259	-0.16064	-0.079513	0.060179
304	2.8949	-0.07441	-0.021298	0.1637	-0.1079	-0.26871	0.19199	-0.08935	-0.26476	0.21804	-0.046816	-0.15316	-0.008669	-0.046816	0.031938	-0.008669	0	0	0	-0.13633	0.031372	0.060058	-0.099328	0.017844	0.17258	-0.16061	-0.079507	0.060161
305	2.9045	-0.07439	-0.021283	0.16369	-0.10789	-0.26852	0.19175	-0.089403	-0.26457	0.21785	-0.046816	-0.15316	-0.008669	-0.046816	0.031938	-0.008669	0	0	0	-0.13631	0.031379	0.060035	-0.099334	0.017859	0.17257	-0.16059	-0.079502	0.060143
306	2.914	-0.074372	-0.021268	0.16367	-0.10789	-0.26833	0.19153	-0.089463	-0.26437	0.21768	-0.046816	-0.15316	-0.008669	-0.046816	0.031938	-0.008669	0	0	0	-0.1363	0.031387	0.060011	-0.099341	0.017874	0.17256	-0.16057	-0.079496	0.060125
307	2.9236	-0.074357	-0.021254	0.16365	-0.1079	-0.26813	0.19133	-0.089531	-0.26418	0.21753	-0.046816	-0.15316	-0.008669	-0.046816	0.031938	-0.008669	0	0	0	-0.13628	0.031394	0.059987	-0.099349	0.017889	0.17254	-0.16055	-0.079491	0.060106
308	2.9331	-0.074345	-0.021239	0.16364	-0.10791	-0.26794	0.19115	-0.089608	-0.26399	0.2174	-0.046816	-0.15316	-0.008669	-0.046816	0.031938	-0.008669	0	0	0	-0.13627	0.0314	0.059962	-0.099357	0.017904	0.17253	-0.16053	-0.079486	0.060088
309	2.9427	-0.074336	-0.021224	0.16362	-0.10793	-0.26775	0.19099	-0.089693	-0.26379	0.21729	-0.046816	-0.15316	-0.008669	-0.046816	0.031938	-0.008669	0	0	0	-0.13625	0.031407	0.059936	-0.099365	0.017919	0.17252	-0.16051	-0.079481	0.060071
310	2.9522	-0.07433	-0.021209	0.16361	-0.10796	-0.26757	0.19086	-0.089789	-0.2636	0.2172	-0.046816	-0.15316	-0.008669	-0.046816	0.031938	-0.008669	0	0	0	-0.13623	0.031413	0.05991	-0.099373	0.017934	0.1725	-0.16049	-0.079476	0.060053
311	2.9618	-0.074328	-0.021194	0.16359	-0.10799	-0.26738	0.19075	-0.089894	-0.26341	0.21714	-0.046816	-0.15316	-0.008669	-0.046816	0.031938	-0.008669	0	0	0	-0.13622	0.03142	0.059883	-0.099382	0.017948	0.17249	-0.16047	-0.079472	0.060035
312	2.9713	-0.07433	-0.021178	0.16357	-0.10804	-0.2672	0.19066	-0.09001	-0.26322	0.2171	-0.046816	-0.15316	-0.008669	-0.046816	0.031938	-0.008669	0	0	0	-0.1362	0.031425	0.059855	-0.099392	0.017963	0.17248	-0.16046	-0.079468	0.060018
313	2.9809	-0.074336	-0.021163	0.16356	-0.10808	-0.26702	0.19059	-0.090137	-0.26304	0.21708	-0.046816	-0.15316	-0.008669	-0.046816	0.031938	-0.008669	0	0	0	-0.13619	0.031431	0.059827	-0.099402	0.017978	0.17247	-0.16044	-0.079464	0.060001
